<svg xmlns="http://www.w3.org/2000/svg" xmlns:xlink="http://www.w3.org/1999/xlink"><symbol viewBox="0 0 20 20" id="calendar"><path d="M15 4h3v15H2V4h3V3c0-.41.15-.76.44-1.06.29-.29.65-.44 1.06-.44s.77.15 1.06.44c.29.3.44.65.44 1.06v1h4V3c0-.41.15-.76.44-1.06.29-.29.65-.44 1.06-.44s.77.15 1.06.44c.29.3.44.65.44 1.06v1zM6 3v2.5a.491.491 0 0 0 .5.5.491.491 0 0 0 .5-.5V3c0-.14-.05-.26-.15-.35-.09-.1-.21-.15-.35-.15s-.26.05-.35.15c-.1.09-.15.21-.15.35zm7 0v2.5c0 .14.05.26.14.36.1.09.22.14.36.14s.26-.05.36-.14c.09-.1.14-.22.14-.36V3a.491.491 0 0 0-.5-.5.491.491 0 0 0-.5.5zm4 15V8H3v10h14zM7 9v2H5V9h2zm2 0h2v2H9V9zm4 2V9h2v2h-2zm-6 1v2H5v-2h2zm2 0h2v2H9v-2zm4 2v-2h2v2h-2zm-6 1v2H5v-2h2zm4 2H9v-2h2v2zm4 0h-2v-2h2v2z"/></symbol><symbol viewBox="0 0 20 20" id="caret-down"><path d="M15 8l-4.03 6L7 8h8z"/></symbol><symbol viewBox="0 0 20 20" id="caret-up"><path d="M7 13l4.03-6L15 13H7z"/></symbol><symbol viewBox="0 0 20 20" id="close"><path d="M14.95 6.46L11.41 10l3.54 3.54-1.41 1.41L10 11.42l-3.53 3.53-1.42-1.42L8.58 10 5.05 6.47l1.42-1.42L10 8.58l3.54-3.53z"/></symbol><symbol viewBox="0 0 20 20" id="desktop"><path d="M3 2h14c.55 0 1 .45 1 1v10c0 .55-.45 1-1 1h-5v2h2c.55 0 1 .45 1 1v1H5v-1c0-.55.45-1 1-1h2v-2H3c-.55 0-1-.45-1-1V3c0-.55.45-1 1-1zm13 9V4H4v7h12zM5 5h9L5 9V5z"/></symbol><symbol viewBox="0 0 20 20" id="mobile"><path d="M6 2h8c.55 0 1 .45 1 1v14c0 .55-.45 1-1 1H6c-.55 0-1-.45-1-1V3c0-.55.45-1 1-1zm7 12V4H7v10h6zM8 5h4l-4 5V5z"/></symbol><symbol viewBox="0 0 20 20" id="preview"><path d="M19 10a9 9 0 1 0-18.001.001A9 9 0 0 0 19 10zm-11 .1c-2.84-.29-4.48-1.17-5.48-2.29.97-3.16 3.8-5.48 7.25-5.63-.84 1.38-1.5 4.13-.03 5.57-1.51.21-2.21-1.86-3.11-1.15-1.43 1.12-.08 2.67 3.2 3.27 3.29.59 3.66 1.58 3.63 3.08-.03 1.47-.8 3.3-4.06 4.7.09-4.18-2.64-3.84-3.2-5.04.2-.87.44-1.78 1.8-2.51zm8.49-4.32c2.15 3.3 1.02 6.08.84 6.68-.77-1.86-2.17-2.29-2.53-3.54-.32-1.11.62-2.23 1.69-3.14z"/></symbol><symbol viewBox="0 0 100 100" preserveAspectRatio="xMidYMid" id="spinner"><rect x="46.5" y="40" width="7" height="20" rx="5" ry="5" fill="#fff" transform="translate(0 -30)"><animate attributeName="opacity" from="1" to="0" dur="1s" begin="0s" repeatCount="indefinite"/></rect><rect x="46.5" y="40" width="7" height="20" rx="5" ry="5" fill="#fff" transform="rotate(30 105.98 65)"><animate attributeName="opacity" from="1" to="0" dur="1s" begin="0.08333333333333333s" repeatCount="indefinite"/></rect><rect x="46.5" y="40" width="7" height="20" rx="5" ry="5" fill="#fff" transform="rotate(60 75.98 65)"><animate attributeName="opacity" from="1" to="0" dur="1s" begin="0.16666666666666666s" repeatCount="indefinite"/></rect><rect x="46.5" y="40" width="7" height="20" rx="5" ry="5" fill="#fff" transform="rotate(90 65 65)"><animate attributeName="opacity" from="1" to="0" dur="1s" begin="0.25s" repeatCount="indefinite"/></rect><rect x="46.5" y="40" width="7" height="20" rx="5" ry="5" fill="#fff" transform="rotate(120 58.66 65)"><animate attributeName="opacity" from="1" to="0" dur="1s" begin="0.3333333333333333s" repeatCount="indefinite"/></rect><rect x="46.5" y="40" width="7" height="20" rx="5" ry="5" fill="#fff" transform="rotate(150 54.02 65)"><animate attributeName="opacity" from="1" to="0" dur="1s" begin="0.4166666666666667s" repeatCount="indefinite"/></rect><rect x="46.5" y="40" width="7" height="20" rx="5" ry="5" fill="#fff" transform="rotate(180 50 65)"><animate attributeName="opacity" from="1" to="0" dur="1s" begin="0.5s" repeatCount="indefinite"/></rect><rect x="46.5" y="40" width="7" height="20" rx="5" ry="5" fill="#fff" transform="rotate(-150 45.98 65)"><animate attributeName="opacity" from="1" to="0" dur="1s" begin="0.5833333333333334s" repeatCount="indefinite"/></rect><rect x="46.5" y="40" width="7" height="20" rx="5" ry="5" fill="#fff" transform="rotate(-120 41.34 65)"><animate attributeName="opacity" from="1" to="0" dur="1s" begin="0.6666666666666666s" repeatCount="indefinite"/></rect><rect x="46.5" y="40" width="7" height="20" rx="5" ry="5" fill="#fff" transform="rotate(-90 35 65)"><animate attributeName="opacity" from="1" to="0" dur="1s" begin="0.75s" repeatCount="indefinite"/></rect><rect x="46.5" y="40" width="7" height="20" rx="5" ry="5" fill="#fff" transform="rotate(-60 24.02 65)"><animate attributeName="opacity" from="1" to="0" dur="1s" begin="0.8333333333333334s" repeatCount="indefinite"/></rect><rect x="46.5" y="40" width="7" height="20" rx="5" ry="5" fill="#fff" transform="rotate(-30 -5.98 65)"><animate attributeName="opacity" from="1" to="0" dur="1s" begin="0.9166666666666666s" repeatCount="indefinite"/></rect></symbol><symbol viewBox="0 0 20 20" id="upload"><path d="M8 14V8H5l5-6 5 6h-3v6H8zm-2 2v-6H4v8h12.01v-8H14v6H6z"/></symbol></svg>