<svg width="32" height="32" xmlns="http://www.w3.org/2000/svg"><g fill="none" fill-rule="evenodd"><path d="M2.362 0C1.059 0 0 1.033 0 2.306V29.69C0 30.966 1.059 32 2.362 32h27.27C30.936 32 32 30.966 32 29.691V2.306C32 1.033 30.937 0 29.631 0H2.361z" fill="#0071A1"/><path d="M7.117 4.406a2.754 2.754 0 0 1 2.75 2.754 2.754 2.754 0 0 1-2.75 2.755 2.753 2.753 0 0 1-2.75-2.755c0-1.52 1.23-2.754 2.75-2.754zM4.744 27.295v-15.29h4.744v15.29H4.744zm7.72-15.29h4.549v2.09h.063c.634-1.202 2.181-2.47 4.489-2.47 4.803 0 5.69 3.167 5.69 7.283v8.387h-4.74v-7.436c0-1.773-.033-4.053-2.465-4.053-2.468 0-2.847 1.931-2.847 3.925v7.564h-4.74v-15.29z" fill="#FFFFFE"/></g></svg>