<svg id="colored-twitter" width="32" height="26" xmlns="http://www.w3.org/2000/svg"><path d="M10.06 25.949c12.071 0 18.676-9.967 18.676-18.595 0-.28 0-.56-.013-.841A13.34 13.34 0 0 0 32 3.123a13.347 13.347 0 0 1-3.776 1.032 6.58 6.58 0 0 0 2.893-3.62 13.09 13.09 0 0 1-4.173 1.58A6.564 6.564 0 0 0 22.157.052c-3.623 0-6.567 2.931-6.567 6.538 0 .51.064 1.007.167 1.491C10.304 7.813 5.466 5.2 2.227 1.25a6.546 6.546 0 0 0 2.035 8.73 6.66 6.66 0 0 1-2.97-.815v.089c0 3.16 2.266 5.812 5.262 6.41-.55.154-1.127.23-1.728.23a6.48 6.48 0 0 1-1.23-.115 6.56 6.56 0 0 0 6.132 4.538 13.2 13.2 0 0 1-8.154 2.804c-.524 0-1.05-.026-1.561-.09A18.729 18.729 0 0 0 10.06 25.95" fill="#1DA1F2"/></svg>
