<svg id="white-hollow-circle-instagram" width="34" height="34" xmlns="http://www.w3.org/2000/svg"><g transform="translate(1 1)" fill="none" fill-rule="evenodd"><circle stroke="#FFF" stroke-width="2" cx="16" cy="16" r="16"/><path d="M16 7c-2.444 0-2.75.01-3.71.054-.959.044-1.613.196-2.185.419A4.411 4.411 0 0 0 8.51 8.51c-.5.5-.809 1.002-1.038 1.594-.223.572-.375 1.226-.419 2.184C7.01 13.25 7 13.556 7 16s.01 2.75.054 3.71c.044.959.196 1.613.419 2.185.23.592.537 1.094 1.038 1.594.5.5 1.002.809 1.594 1.039.572.222 1.226.374 2.184.418.96.044 1.267.054 3.711.054s2.75-.01 3.71-.054c.959-.044 1.613-.196 2.185-.418a4.412 4.412 0 0 0 1.594-1.039c.5-.5.809-1.002 1.039-1.594.222-.572.374-1.226.418-2.184.044-.96.054-1.267.054-3.711s-.01-2.75-.054-3.71c-.044-.959-.196-1.613-.418-2.185a4.412 4.412 0 0 0-1.039-1.594c-.5-.5-1.002-.809-1.594-1.038-.572-.223-1.226-.375-2.184-.419C18.75 7.01 18.444 7 16 7zm0 1.622c2.403 0 2.688.009 3.637.052.877.04 1.354.187 1.67.31.421.163.72.358 1.036.673.315.315.51.615.673 1.035.123.317.27.794.31 1.671.043.95.052 1.234.052 3.637s-.009 2.688-.052 3.637c-.04.877-.187 1.354-.31 1.67a2.79 2.79 0 0 1-.673 1.036c-.315.315-.615.51-1.035.673-.317.123-.794.27-1.671.31-.95.043-1.234.052-3.637.052s-2.688-.009-3.637-.052c-.877-.04-1.354-.187-1.67-.31a2.788 2.788 0 0 1-1.036-.673 2.789 2.789 0 0 1-.673-1.035c-.123-.317-.27-.794-.31-1.671-.043-.95-.052-1.234-.052-3.637s.009-2.688.052-3.637c.04-.877.187-1.354.31-1.67a2.79 2.79 0 0 1 .673-1.036c.315-.315.615-.51 1.035-.673.317-.123.794-.27 1.671-.31.95-.043 1.234-.052 3.637-.052zM16 19a3 3 0 1 1 0-6 3 3 0 0 1 0 6zm0-7.622a4.622 4.622 0 1 0 0 9.244 4.622 4.622 0 0 0 0-9.244zm5.884-.182a1.08 1.08 0 1 0-2.16 0 1.08 1.08 0 0 0 2.16 0z" fill="#FFF"/></g></svg>
